<svg width="600" height="600" viewBox="0 0 600 600" fill="none" xmlns="http://www.w3.org/2000/svg">
<rect width="600" height="600" rx="66" fill="black"/>
<path d="M270.184 41.2806C284.414 37.8404 299.041 36.2165 313.668 36C313.632 37.0706 313.608 38.1291 313.584 39.2117C311.767 39.6327 309.903 39.9574 308.183 40.7032C306.342 42.0144 305.945 44.4081 305.777 46.5011C305.368 52.4312 305.777 58.3975 306.824 64.2434C310.288 81.8414 305.103 99.6439 306.884 117.35C308.123 129.15 308.291 141.035 307.425 152.871C305.909 152.979 304.394 153.099 302.89 153.232C307.112 154.23 311.346 155.168 315.653 155.794C308.977 157.586 302.096 158.452 295.42 160.22C289.538 161.52 283.813 163.456 277.87 164.491C277.028 164.575 275.32 164.731 274.466 164.815C276.607 162.47 279.578 160.257 279.566 156.756C280.733 139.651 280.697 122.438 279.145 105.37C278.243 95.7466 280.132 86.1838 279.939 76.5728C279.061 65.4583 279.302 54.2115 276.872 43.2653C274.647 42.5917 272.421 41.8941 270.184 41.2806Z" fill="#F2D266"/>
<path d="M313.668 36C316.495 42.7481 317.914 49.9774 320.079 56.954C322.136 64.6043 324.686 72.1463 326.298 79.9168C326.394 80.7348 326.599 82.3707 326.695 83.1886C325.384 82.7075 324.097 82.2383 322.81 81.7692C322.966 89.215 322.882 96.6608 322.16 104.082C321.402 111.829 324.566 119.275 324.409 126.997C324.337 133.757 323.195 140.626 324.854 147.302C325.36 150.489 328.427 152.113 330.664 154.038C325.636 154.399 320.693 155.637 315.653 155.794C311.346 155.168 307.112 154.23 302.89 153.232C304.394 153.099 305.909 152.979 307.425 152.871C308.291 141.035 308.123 129.15 306.884 117.35C305.103 99.6439 310.288 81.8414 306.824 64.2434C305.777 58.3975 305.368 52.4312 305.777 46.5011C305.945 44.4081 306.342 42.0144 308.183 40.7032C309.903 39.9574 311.767 39.6327 313.584 39.2117C313.608 38.1291 313.632 37.0706 313.668 36Z" fill="#E5C35B"/>
<path d="M307.665 357.876C310.191 357.984 312.73 358.105 315.268 358.237C317.192 364.083 320.464 369.52 321.402 375.654C322.389 388.73 316.867 401.432 318.72 414.531C319.033 418.236 321.162 421.4 323.014 424.515C319.935 432.947 318.948 442.005 315.268 450.245C311.322 442.751 307.678 435.028 304.394 427.222C304.346 421.688 305.789 416.287 306.042 410.766C306.09 407.254 308.58 404.56 310.324 401.733C311.984 401.276 313.656 400.843 315.328 400.386C315.725 399.014 316.146 397.655 316.579 396.308C316.783 395.718 317.168 394.54 317.361 393.95C314.883 393.132 312.369 392.483 309.891 391.689C309.879 387.9 309.097 384.159 307.533 380.707C308.556 378.602 309.65 376.533 310.54 374.379C310.937 372.335 311.13 370.266 311.298 368.197C309.362 367.908 307.449 367.631 305.524 367.415C306.499 366.862 307.473 366.332 308.471 365.815C307.641 365.382 306.823 364.949 306.005 364.54C307.894 362.688 309.903 360.967 312.044 359.404C310.576 358.887 309.109 358.381 307.665 357.876ZM314.414 422.049C314.269 423.817 314.185 425.61 314.125 427.402C316.807 428.581 320.885 427.943 320.56 424.311C320.272 421.063 316.615 422.109 314.414 422.049Z" fill="#E5C35B"/>
<path d="M326.707 37.2029C330.376 38.1291 334.345 38.6464 337.533 40.8596C340.504 42.9166 340.408 46.9462 341.177 50.1217C342.453 59.2756 344.858 68.2971 345.748 77.487C345.664 78.1366 345.484 79.4477 345.388 80.1093C344.137 77.6795 342.982 75.2136 341.875 72.7357C340.275 77.1863 336.703 81.3603 337.785 86.3763C340.095 100.005 345.243 113.621 342.922 127.635C341.31 123.461 340.588 119.034 339.854 114.656C335.825 88.77 331.049 63.0165 326.707 37.2029Z" fill="#D7AF4C"/>
<path d="M262.871 42.9286C265.264 42.267 267.658 41.2926 270.184 41.2806C272.421 41.8941 274.647 42.5917 276.872 43.2653C279.302 54.2115 279.061 65.4583 279.939 76.5728C280.132 86.1838 278.243 95.7466 279.145 105.37C280.697 122.438 280.733 139.651 279.566 156.756C279.578 160.257 276.607 162.47 274.466 164.815C275.32 164.731 277.028 164.575 277.87 164.491C273.408 166.211 268.777 167.498 264.122 168.604C270.425 162.506 267.79 153.208 268.849 145.425C270.112 135.249 267.333 125.121 268.452 114.944C269.414 105.73 267.983 96.5044 268.115 87.2784C268.079 81.216 268.62 75.1775 269.138 69.1512C269.871 60.9837 269.029 52.8042 268.813 44.6367C266.828 44.0352 264.855 43.4458 262.871 42.9286Z" fill="#E7C55B"/>
<path d="M253.897 44.8411C256.856 44.1074 259.803 43.1812 262.871 42.9286C264.855 43.4458 266.828 44.0352 268.813 44.6367C269.029 52.8042 269.871 60.9837 269.138 69.1512C268.62 75.1775 268.079 81.216 268.115 87.2784C267.983 96.5044 269.414 105.73 268.452 114.944C267.333 125.121 270.112 135.249 268.849 145.425C267.79 153.208 270.425 162.506 264.122 168.604C263.616 168.917 262.594 169.531 262.089 169.843C259.37 165.128 256.688 160.148 256.315 154.615C254.859 135.032 259.719 115.45 257.109 95.903C255.99 87.0739 254.126 78.0644 256.219 69.2233C257.951 61.1882 259.839 51.6614 253.897 44.8411Z" fill="#DEB850"/>
<path d="M241.339 48.57C245.465 47.1386 249.663 45.9478 253.897 44.8411C259.839 51.6614 257.951 61.1882 256.219 69.2233C254.126 78.0644 255.99 87.0739 257.109 95.903C259.719 115.45 254.859 135.032 256.315 154.615C256.688 160.148 259.37 165.128 262.089 169.843C257.65 170.986 253.476 172.983 249.001 173.945C248.171 174.078 246.524 174.354 245.694 174.499C246.608 173.043 247.534 171.612 248.46 170.18C246.752 159.751 242.71 149.683 242.807 139.014C242.41 126.083 245.742 113.152 243.264 100.281C241.279 88.8181 241.664 77.1502 241.724 65.5666C241.628 60.3582 243.973 55.6189 246.403 51.1562C244.707 50.3022 243.023 49.4361 241.339 48.57Z" fill="#D2A943"/>
<path d="M218.304 57.387C225.57 53.4777 233.436 50.8314 241.339 48.57C243.023 49.4361 244.707 50.3022 246.403 51.1562C243.973 55.6189 241.628 60.3582 241.724 65.5666C241.664 77.1502 241.279 88.8181 243.264 100.281C245.742 113.152 242.41 126.083 242.807 139.014C242.71 149.683 246.752 159.751 248.46 170.18C247.534 171.612 246.608 173.043 245.694 174.499C246.524 174.354 248.171 174.078 249.001 173.945C243.131 177.073 236.865 179.358 230.826 182.113C229.659 180.308 228.059 178.684 227.458 176.591C228.637 171.515 231.307 166.836 231.8 161.58C233.665 145.545 229.082 129.728 228.505 113.766C228.589 103.313 230.67 92.8958 229.671 82.4188C228.793 74.2393 228.468 65.9755 226.845 57.8923C223.994 57.6998 221.155 57.4592 218.304 57.387Z" fill="#C79B38"/>
<path d="M212.494 59.3116C214.395 58.6019 216.271 57.6878 218.304 57.387C221.155 57.4592 223.994 57.6998 226.845 57.8923C228.468 65.9755 228.793 74.2393 229.671 82.4188C230.67 92.8958 228.589 103.313 228.505 113.766C229.082 129.728 233.665 145.545 231.8 161.58C231.307 166.836 228.637 171.515 227.458 176.591C228.059 178.684 229.659 180.308 230.826 182.113C227.626 183.905 224.367 185.577 221.023 187.056C218.833 176.543 214.864 166.475 212.807 155.95C212.663 154.519 212.542 153.099 212.434 151.668C213.625 152.101 214.816 152.534 216.019 152.967C219.026 145.088 214.082 137.21 214.972 129.162C215.766 125.229 212.506 122.859 209.92 120.586C211.592 111.215 212.506 101.653 211.929 92.1259C211.496 83.8983 210.822 75.4181 213.673 67.5152C214.984 64.7125 213.745 61.8497 212.494 59.3116Z" fill="#C29635"/>
<path d="M190.867 73.5657C196.641 66.9379 204.952 63.4615 212.494 59.3116C213.745 61.8497 214.984 64.7125 213.673 67.5152C210.822 75.4181 211.496 83.8983 211.929 92.1259C212.506 101.653 211.592 111.215 209.92 120.586C212.506 122.859 215.766 125.229 214.972 129.162C214.082 137.21 219.026 145.088 216.019 152.967C214.816 152.534 213.625 152.101 212.434 151.668C212.542 153.099 212.663 154.519 212.807 155.95C205.181 133.565 199.118 110.662 191.18 88.373C189.664 83.7299 187.33 77.8479 190.867 73.5657Z" fill="#B38225"/>
<path d="M341.875 72.7357C342.982 75.2136 344.137 77.6795 345.388 80.1093C345.484 79.4477 345.664 78.1366 345.748 77.487C350.704 97.0818 353.507 117.182 358.21 136.849C359.437 141.997 360.532 147.193 361.446 152.414C355.684 152.438 349.91 152.835 344.161 152.594C342.224 151.572 340.251 150.561 338.675 149.046C337.088 143.128 337.99 136.897 337.918 130.846C339.289 132.338 340.672 133.817 342.007 135.357C343.21 137.691 343.968 140.217 345.003 142.622C344.449 137.606 342.705 132.711 342.922 127.635C345.243 113.621 340.095 100.005 337.785 86.3763C336.703 81.3603 340.275 77.1863 341.875 72.7357Z" fill="#C59C3D"/>
<path d="M326.298 79.9168C331.567 98.3809 337.846 116.592 342.007 135.357C340.672 133.817 339.289 132.338 337.918 130.846C337.99 136.897 337.088 143.128 338.675 149.046C340.251 150.561 342.224 151.572 344.161 152.594C339.638 152.907 335.151 153.436 330.664 154.038C328.427 152.113 325.36 150.489 324.854 147.302C323.195 140.626 324.337 133.757 324.409 126.997C324.566 119.275 321.402 111.829 322.16 104.082C322.882 96.6608 322.966 89.215 322.81 81.7692C324.097 82.2383 325.384 82.7075 326.695 83.1886C326.599 82.3707 326.394 80.7348 326.298 79.9168Z" fill="#D8B44E"/>
<path d="M313.632 165.309C323.447 163.829 333.299 162.073 343.258 162.217C338.543 163.649 333.78 164.852 328.992 165.946C327.357 169.314 324.241 171.564 322.232 174.643C321.956 176.459 322.172 178.3 322.268 180.128C306.174 183.171 290.296 187.429 274.791 192.71C268.055 194.875 261.872 198.412 255.184 200.637C254.739 200.745 253.861 200.962 253.416 201.07C255.365 195.296 257.061 189.426 258.083 183.412C255.545 184.182 253.031 184.964 250.505 185.745C250.553 185.072 250.661 183.7 250.71 183.015C271.05 175.1 292.052 168.785 313.632 165.309Z" fill="#EFCE62"/>
<path d="M343.258 162.217C349.189 161.038 355.335 161.303 361.338 161.76C357.669 162.939 353.916 163.853 350.091 164.334C351.691 167.522 352.003 171.094 351.991 174.607C356.261 175.413 360.508 176.303 364.754 177.277C350.536 176.664 336.33 178.143 322.268 180.128C322.172 178.3 321.956 176.459 322.232 174.643C324.241 171.564 327.357 169.314 328.992 165.946C333.78 164.852 338.543 163.649 343.258 162.217Z" fill="#DCB650"/>
<path d="M361.338 161.76C365.066 160.978 369 161.243 372.705 162.073C373.595 162.313 374.485 162.566 375.375 162.831C374.268 168.111 374.16 173.765 371.009 178.384C368.904 178.059 366.811 177.734 364.754 177.277C360.508 176.303 356.261 175.413 351.991 174.607C352.003 171.094 351.691 167.522 350.091 164.334C353.916 163.853 357.669 162.939 361.338 161.76Z" fill="#C2963A"/>
<path d="M372.705 162.073C382.003 162.121 391.241 163.673 400.262 165.826C406.421 167.582 413.482 169.194 417.127 175.04C414.733 177.554 411.954 179.719 408.658 180.886C399.95 184.35 390.856 186.744 381.69 188.644C380.559 186.046 379.862 183.051 377.636 181.138C375.688 179.683 373.27 179.142 371.009 178.384C374.16 173.765 374.268 168.111 375.375 162.831C374.485 162.566 373.595 162.313 372.705 162.073Z" fill="#C29635"/>
<path d="M226.544 194.081C234.435 190.064 242.362 186.046 250.71 183.015C250.661 183.7 250.553 185.072 250.505 185.745C253.031 184.964 255.545 184.182 258.083 183.412C257.061 189.426 255.365 195.296 253.416 201.07C253.861 200.962 254.739 200.745 255.184 200.637C247.522 205.653 238.777 208.804 231.367 214.265C230.092 207.457 230.946 199.927 226.544 194.081Z" fill="#D7AE44"/>
<path d="M364.465 186.347C366.426 186.347 368.398 186.359 370.383 186.347C373.138 196.451 375.952 206.711 375.447 217.297C375.002 221.519 377.781 224.887 379.85 228.255C383.17 233.572 385.852 239.249 388.438 244.951C389.304 247.344 390.964 250.243 389.244 252.661C385.07 255.355 380.054 256.234 375.315 257.436C376.386 264.197 378.647 270.945 377.913 277.861C376.361 280.279 374.16 282.204 372.705 284.681C371.887 290.491 374.689 296.265 373.595 302.087C371.935 305.479 367.941 306.862 364.405 307.127C358.415 307.62 352.424 306.754 346.554 305.696C349.273 304.144 351.979 302.556 354.638 300.884C353.555 300.162 352.472 299.441 351.378 298.767C356.791 299.777 362.312 300.379 367.809 299.705C368.916 293.234 366.149 286.69 367.773 280.279C368.868 277.885 370.6 275.864 372.103 273.723C371.297 267.228 368.434 260.239 370.84 253.864C375.086 252.252 379.573 251.35 383.783 249.642C380.535 240.608 375.026 232.657 370.816 224.093C368.531 219.714 369.277 214.65 369.132 209.911C369.216 201.792 365.62 194.286 364.465 186.347Z" fill="#C29635"/>
<path d="M198.505 211.896C206.997 204.727 216.692 199.133 226.544 194.081C230.946 199.927 230.092 207.457 231.367 214.265C228.769 216.395 225.979 218.307 223.717 220.809C221.492 223.239 220.674 226.547 218.906 229.277C216.62 230.107 214.226 230.661 211.809 230.877C207.948 230.576 204.134 229.927 200.333 229.265C201.163 226.98 202.294 224.742 202.486 222.289C202.138 218.536 200.117 215.228 198.505 211.896Z" fill="#C29635"/>
<path d="M183 232.513C183.385 223.155 192.094 217.465 198.505 211.896C200.117 215.228 202.138 218.536 202.486 222.289C202.294 224.742 201.163 226.98 200.333 229.265C204.134 229.927 207.948 230.576 211.809 230.877C205.037 232.561 198.132 233.728 191.18 234.257C188.329 234.498 185.634 233.391 183 232.513Z" fill="#C29635"/>
<path d="M229.467 226.871C229.587 224.165 232.691 223.876 234.555 222.77C236.407 233.788 241.135 244.253 248.003 253.046C250.313 256.053 253.284 258.531 255.341 261.755C255.521 274.553 251.239 286.919 250.517 299.621C249.374 298.382 248.328 297.059 247.257 295.772C248.665 300.186 251.936 304.757 250.144 309.545C248.436 315.186 246.391 320.707 244.322 326.229C242.554 325.808 240.786 325.411 239.042 324.917C236.54 323.462 235.409 320.479 233.713 318.254C237.49 310.074 240.521 301.558 244.671 293.547C247.281 286.474 247.089 278.751 247.474 271.33C247.342 268.31 248.172 264.762 245.97 262.284C243.396 258.88 240.305 255.885 237.899 252.36C232.703 244.903 230.104 235.857 229.467 226.871Z" fill="#CA9F38"/>
<path d="M280.733 255.055C288.035 262.597 293.351 271.763 298.259 280.977C299.281 283.418 302.168 283.779 304.382 284.573C315.063 287.436 325.444 291.309 336.041 294.425C334.237 297.167 332.3 299.802 330.207 302.328C318.167 299.092 306.655 294.232 294.855 290.263C293.039 289.565 290.633 288.976 290.344 286.678C286.94 276.201 283.656 265.676 280.733 255.055Z" fill="#E8C55B"/>
<path d="M336.041 294.425C341.153 295.844 346.53 296.554 351.378 298.767C352.472 299.441 353.555 300.162 354.638 300.884C351.979 302.556 349.273 304.144 346.554 305.696C341.923 304.589 337.292 303.458 332.589 302.724C331.795 306.983 331.579 311.325 330.845 315.595C326.093 319.877 320.091 322.548 315.195 326.698C311.515 330.33 306.102 327.492 301.603 328.767C303.78 328.117 305.981 327.54 308.147 326.794C309.879 325.772 310.937 323.967 312.2 322.452C317.565 315.186 324.397 309.22 330.207 302.328C332.3 299.802 334.237 297.167 336.041 294.425Z" fill="#CFA43D"/>
<path d="M247.257 295.772C248.328 297.059 249.374 298.382 250.517 299.621C255.401 303.939 261.716 306.068 266.996 309.797C266.335 309.809 265.024 309.809 264.362 309.821C266.816 311.842 269.366 313.743 271.952 315.619C269.535 318.049 266.551 320.238 265.3 323.546C264.579 326.662 265.204 329.873 265.385 333.013C265.168 342.961 265.529 353.077 268.969 362.519C268.753 363.133 268.296 364.348 268.079 364.961C262.233 357.215 256.952 349.083 251.131 341.337C247.197 335.791 242.614 330.715 239.042 324.917C240.786 325.411 242.554 325.808 244.322 326.229C246.391 320.707 248.436 315.186 250.144 309.545C251.936 304.757 248.665 300.186 247.257 295.772Z" fill="#D9B145"/>
<path d="M264.362 309.821C265.024 309.809 266.335 309.809 266.996 309.797C273.733 312.528 280.011 316.317 286.868 318.771C294.025 321.285 301.146 323.883 308.147 326.794C305.981 327.54 303.78 328.117 301.603 328.767C300.773 329.031 299.125 329.549 298.295 329.813C296.792 328.899 295.3 328.021 293.796 327.167C287.096 323.739 280.445 318.085 272.482 318.987C266.792 320.9 266.443 328.045 265.385 333.013C265.204 329.873 264.579 326.662 265.3 323.546C266.551 320.238 269.535 318.049 271.952 315.619C269.366 313.743 266.816 311.842 264.362 309.821Z" fill="#F2D473"/>
<path d="M201.236 339.075C209.74 334.444 217.955 329.212 226.869 325.375C227.29 325.928 228.132 327.022 228.553 327.576C219.892 333.867 215.297 343.899 212.374 353.895C210.389 359.68 216.211 364.155 216.259 369.76C216.199 375.234 214.78 380.586 213.397 385.855C211.592 393.144 206.348 398.954 204.495 406.244C203.798 403.405 203.328 400.506 203.112 397.595C202.138 380.298 199.936 363.121 198.998 345.823C198.998 343.418 198.252 340.038 201.236 339.075Z" fill="#C29635"/>
<path d="M274.141 325.82C280.914 327.504 287.181 330.667 293.195 334.143C295.24 335.262 297.249 336.525 299.486 337.259C301.928 336.261 303.864 333.843 306.691 333.987C309.313 333.759 311.599 335.214 313.848 336.333C313.716 339.508 313.572 342.708 312.982 345.847C311.166 348.698 306.619 349.54 303.564 348.145C302.18 347.543 300.821 346.918 299.474 346.304C291.282 350.226 283.716 355.603 274.887 358.081C272.385 347.531 271.832 336.441 274.141 325.82Z" fill="#EAC960"/>
<path d="M212.374 353.895C215.297 343.899 219.892 333.867 228.553 327.576C232.45 331.666 235.866 336.176 239.258 340.699C236.167 343.646 232.486 346.268 230.465 350.154C229.359 354.219 229.792 358.514 229.371 362.688C228.974 369.327 226.664 375.703 226.496 382.367C226.412 387.322 229.707 391.484 230.357 396.296C229.864 398.714 228.661 400.903 227.699 403.164C219.892 404.475 212.073 405.618 204.267 406.929L204.495 406.244C206.348 398.954 211.592 393.144 213.397 385.855C214.78 380.586 216.199 375.234 216.259 369.76C216.211 364.155 210.389 359.68 212.374 353.895Z" fill="#C29635"/>
<path d="M313.848 336.333C318.768 333.482 322.761 328.273 328.812 328.009C330.496 335.058 330.785 342.359 330.4 349.564C330.364 351.561 329.546 353.413 328.788 355.23C323.219 352.608 318.395 348.734 312.982 345.847C313.572 342.708 313.716 339.508 313.848 336.333Z" fill="#D3AB45"/>
<path d="M337.003 333.662C343.331 336.092 349.658 338.558 355.901 341.204C360.411 342.552 361.422 347.808 362.36 351.802C362.36 352.547 362.372 354.039 362.372 354.785C361.085 354.472 359.81 354.159 358.547 353.847C357.633 364.215 355.985 374.716 357.946 385.073C358.992 390.63 358.691 396.308 359.269 401.913C359.281 403.982 361.326 404.944 362.709 406.099C359.028 406.256 355.383 406.665 351.751 407.194C353.002 408.084 354.277 408.974 355.564 409.864C357.152 410.935 358.727 412.041 360.315 413.148C358.848 413.99 357.38 414.844 355.913 415.698C357.404 419.403 359.581 423.12 359.257 427.258C358.836 432.647 357.404 437.927 357.428 443.364C357.416 450.329 358.018 457.293 358.98 464.186C361.289 461.564 363.106 458.556 364.67 455.441C364.718 456.355 364.814 458.196 364.862 459.11C362.757 470.814 359.124 482.265 355.744 493.68C353.555 500.212 351.811 506.936 348.852 513.179C348.912 512.313 349.056 510.593 349.116 509.727C347.685 510.713 346.254 511.711 344.846 512.722C344.81 503.484 348.274 494.823 349.393 485.765C350.391 478.32 347.829 471.114 346.326 463.933C344.93 457.642 347.553 451.351 346.867 445.036C346.398 440.537 345.243 436.087 345.484 431.54C345.736 425.754 347.059 420.065 347.144 414.267C347.384 406.003 345.664 397.872 344.834 389.692C343.776 377.94 347.18 366.429 347.372 354.725C344.076 354.316 340.781 353.979 337.485 353.678C337.256 347.014 337.088 340.338 337.003 333.662Z" fill="#C29635"/>
<path d="M230.465 350.154C232.486 346.268 236.167 343.646 239.258 340.699C240.966 342.936 242.626 345.21 244.25 347.531C237.622 353.486 236.395 362.736 235.71 371.132C235.289 376.701 237.033 382.102 237.502 387.611C237.935 392.699 235.806 397.487 234.002 402.118C231.897 402.467 229.792 402.803 227.699 403.164C228.661 400.903 229.864 398.714 230.357 396.296C229.707 391.484 226.412 387.322 226.496 382.367C226.664 375.703 228.974 369.327 229.371 362.688C229.792 358.514 229.359 354.219 230.465 350.154Z" fill="#C69B36"/>
<path d="M235.71 371.132C236.395 362.736 237.622 353.486 244.25 347.531C247.69 351.922 251.203 356.264 254.354 360.883C252.189 362.856 248.881 364.432 248.605 367.716C247.317 378.806 249.88 391.051 243.841 401.107C240.557 401.456 237.273 401.757 234.002 402.118C235.806 397.487 237.935 392.699 237.502 387.611C237.033 382.102 235.289 376.701 235.71 371.132Z" fill="#CFA63F"/>
<path d="M362.36 351.802C369.397 369.291 372.909 388.056 375.05 406.737C368.374 406.737 361.71 406.785 355.047 407.062C355.179 407.759 355.431 409.167 355.564 409.864C354.277 408.974 353.002 408.084 351.751 407.194C355.383 406.665 359.028 406.256 362.709 406.099C361.326 404.944 359.281 403.982 359.269 401.913C358.691 396.308 358.992 390.63 357.946 385.073C355.985 374.716 357.633 364.215 358.547 353.847C359.81 354.159 361.085 354.472 362.372 354.785C362.372 354.039 362.36 352.547 362.36 351.802Z" fill="#C29635"/>
<path d="M337.485 353.678C340.781 353.979 344.076 354.316 347.372 354.725C347.18 366.429 343.776 377.94 344.834 389.692C345.664 397.872 347.384 406.003 347.144 414.267C347.059 420.065 345.736 425.754 345.484 431.54C345.243 436.087 346.398 440.537 346.867 445.036C347.553 451.351 344.93 457.642 346.326 463.933C347.829 471.114 350.391 478.32 349.393 485.765C348.274 494.823 344.81 503.484 344.846 512.722C346.254 511.711 347.685 510.713 349.116 509.727C349.056 510.593 348.912 512.313 348.852 513.179C346.386 522.838 342.464 532.088 338.423 541.181C337.461 539.63 335.62 538.186 336.089 536.166C336.967 529.899 339.313 523.728 338.387 517.317C337.352 509.378 335.644 501.439 336.342 493.391C336.474 488.881 337.437 484.238 336.27 479.799C335.259 477.285 333.443 475.228 331.855 473.087C335.319 450.497 337.376 427.703 337.761 404.848C338.844 387.791 337.641 370.735 337.485 353.678Z" fill="#CAA140"/>
<path d="M276.499 365.334C284.005 363.626 290.476 359.187 296.936 355.194C302.517 354.568 308.327 356.156 313.993 354.869C315.376 356.036 316.759 357.215 318.142 358.417C317.421 358.381 315.989 358.285 315.268 358.237C312.73 358.105 310.191 357.984 307.665 357.876C309.109 358.381 310.576 358.887 312.044 359.404C309.903 360.967 307.894 362.688 306.005 364.54C306.823 364.949 307.641 365.382 308.471 365.815C307.473 366.332 306.499 366.862 305.524 367.415C305.043 369.123 304.201 370.963 304.851 372.768C306.21 374.488 308.628 373.983 310.54 374.379C309.65 376.533 308.556 378.602 307.533 380.707C309.097 384.159 309.879 387.9 309.891 391.689C312.369 392.483 314.883 393.132 317.361 393.95C317.168 394.54 316.783 395.718 316.579 396.308C314.185 395.213 311.635 394.648 309.013 394.816C309.361 397.126 309.783 399.435 310.324 401.733C308.58 404.56 306.09 407.254 306.042 410.766C305.789 416.287 304.346 421.688 304.394 427.222C293.424 405.822 281.419 384.965 268.079 364.961C268.296 364.348 268.753 363.133 268.969 362.519C271.243 363.903 273.576 366.332 276.499 365.334Z" fill="#F4D468"/>
<path d="M318.142 358.417C322.34 359.452 326.154 361.713 330.34 362.892C331.049 399.423 331.133 436.315 324.049 472.317C320.753 465.136 317.445 457.823 315.268 450.245C318.948 442.005 319.935 432.947 323.014 424.515C321.162 421.4 319.033 418.236 318.72 414.531C316.867 401.432 322.389 388.73 321.402 375.654C320.464 369.52 317.192 364.083 315.268 358.237C315.989 358.285 317.421 358.381 318.142 358.417Z" fill="#DBB653"/>
<path d="M248.605 367.716C248.881 364.432 252.189 362.856 254.354 360.883C259.551 368.377 264.819 375.835 269.595 383.606C266.166 386.925 262.077 389.933 260.032 394.371C259.491 399.135 261.668 403.706 262.125 408.421C263.544 417.37 259.07 425.935 259.948 434.872C260.862 444.242 261.066 453.685 262.75 462.971C261.596 463.464 260.429 463.981 259.286 464.499C253.488 457.883 248.111 450.882 241.856 444.675L242.085 444.086C244.828 436.76 248.027 429.182 247.281 421.195C246.848 416.696 246.391 412.114 244.779 407.867C243.901 404.932 240.293 405.498 237.911 405.029C239.896 403.73 241.965 402.551 243.841 401.107C249.88 391.051 247.317 378.806 248.605 367.716Z" fill="#D9B44A"/>
<path d="M260.032 394.371C262.077 389.933 266.166 386.925 269.595 383.606C273.047 389.187 276.932 394.564 279.807 400.47C274.358 410.538 274.334 422.554 275.946 433.609C276.319 442.077 274.767 450.485 274.502 458.929C273.877 465.581 275.296 473.195 270.413 478.62C266.563 474.025 263.015 469.19 259.286 464.499C260.429 463.981 261.596 463.464 262.75 462.971C261.066 453.685 260.862 444.242 259.948 434.872C259.07 425.935 263.544 417.37 262.125 408.421C261.668 403.706 259.491 399.135 260.032 394.371Z" fill="#E3C257"/>
<path d="M275.946 433.609C274.334 422.554 274.358 410.538 279.807 400.47C294.446 423.565 305.584 448.717 315.737 474.049C313.187 477.405 310.613 480.966 309.903 485.224C308.507 492.802 309.506 500.561 308.965 508.211C308.471 515.548 309.494 522.85 311.009 530.007C309.758 528.046 308.507 526.086 307.281 524.125C306.595 525.496 305.921 526.879 305.26 528.275C294.157 511.362 282.501 494.835 270.413 478.62C275.296 473.195 273.877 465.581 274.502 458.929C274.767 450.485 276.319 442.077 275.946 433.609Z" fill="#F2D366"/>
<path d="M229.395 409.215C232.197 407.759 234.808 405.799 237.911 405.029C240.293 405.498 243.901 404.932 244.779 407.867C246.391 412.114 246.848 416.696 247.281 421.195C248.027 429.182 244.828 436.76 242.085 444.086C232.438 435.834 224.21 425.923 213.565 418.814C218.268 414.736 224.078 412.33 229.395 409.215Z" fill="#C89F3C"/>
<path d="M360.315 413.148C364.405 415.83 368.398 418.681 372.344 421.58C370.732 434.222 368.29 446.828 364.862 459.11C364.814 458.196 364.718 456.355 364.67 455.441C363.106 458.556 361.289 461.564 358.98 464.186C358.018 457.293 357.416 450.329 357.428 443.364C357.404 437.927 358.836 432.647 359.257 427.258C359.581 423.12 357.404 419.403 355.913 415.698C357.38 414.844 358.848 413.99 360.315 413.148Z" fill="#C29635"/>
<path d="M326.923 502.245C327.525 492.381 330.352 482.83 331.855 473.087C333.443 475.228 335.259 477.285 336.27 479.799C337.437 484.238 336.474 488.881 336.342 493.391C335.644 501.439 337.352 509.378 338.387 517.317C339.313 523.728 336.967 529.899 336.089 536.166C335.62 538.186 337.461 539.63 338.423 541.181C336.546 545.668 335.307 550.588 332.445 554.569C330.809 555.808 329.101 556.963 327.429 558.166C324.999 551.983 320.668 546.883 317.433 541.145C318.407 540.833 319.393 540.544 320.392 540.255C321.294 541.23 322.196 542.216 323.11 543.202C322.461 538.872 321.547 534.458 322.389 530.091C324.121 520.853 326.118 511.615 326.923 502.245Z" fill="#D3AF4B"/>
<path d="M315.737 474.049C318.78 481.591 321.474 489.278 324.073 496.988C324.674 498.901 325.709 500.645 326.923 502.245C326.118 511.615 324.121 520.853 322.389 530.091C321.547 534.458 322.461 538.872 323.11 543.202C322.196 542.216 321.294 541.23 320.392 540.255C319.393 540.544 318.407 540.833 317.433 541.145C320.668 546.883 324.999 551.983 327.429 558.166C329.101 556.963 330.809 555.808 332.445 554.569C331.29 557.817 329.834 560.945 328.259 564C323.82 558.515 320.717 552.152 316.867 546.282C313.139 540.183 309.037 534.325 305.26 528.275C305.921 526.879 306.595 525.496 307.281 524.125C308.507 526.086 309.758 528.046 311.009 530.007C309.494 522.85 308.471 515.548 308.965 508.211C309.506 500.561 308.507 492.802 309.903 485.224C310.613 480.966 313.187 477.405 315.737 474.049Z" fill="#E1C059"/>
</svg>
