<svg width="260" height="586" viewBox="0 0 260 586" fill="none" xmlns="http://www.w3.org/2000/svg">
<path d="M96.64 5.85333C112.413 2.04 128.627 0.24 144.84 0C144.8 1.18667 144.773 2.36 144.747 3.56C142.733 4.02666 140.667 4.38667 138.76 5.21334C136.72 6.66667 136.28 9.32001 136.093 11.64C135.64 18.2133 136.093 24.8267 137.253 31.3067C141.093 50.8134 135.347 70.5467 137.32 90.1733C138.693 103.253 138.88 116.427 137.92 129.547C136.24 129.667 134.56 129.8 132.893 129.947C137.573 131.053 142.267 132.093 147.04 132.787C139.64 134.773 132.013 135.733 124.613 137.693C118.093 139.133 111.747 141.28 105.16 142.427C104.227 142.52 102.333 142.693 101.387 142.787C103.76 140.187 107.053 137.733 107.04 133.853C108.333 114.893 108.293 95.8133 106.573 76.8933C105.573 66.2267 107.667 55.6267 107.453 44.9734C106.48 32.6534 106.747 20.1867 104.053 8.05334C101.587 7.30668 99.12 6.53333 96.64 5.85333Z" fill="#F2D266"/>
<path d="M144.84 0C147.973 7.48 149.547 15.4933 151.947 23.2267C154.227 31.7067 157.053 40.0667 158.84 48.68C158.947 49.5867 159.173 51.4 159.28 52.3067C157.827 51.7733 156.4 51.2533 154.973 50.7333C155.147 58.9867 155.053 67.24 154.253 75.4667C153.413 84.0533 156.92 92.3067 156.747 100.867C156.667 108.36 155.4 115.973 157.24 123.373C157.8 126.907 161.2 128.707 163.68 130.84C158.107 131.24 152.627 132.613 147.04 132.787C142.267 132.093 137.573 131.053 132.893 129.947C134.56 129.8 136.24 129.667 137.92 129.547C138.88 116.427 138.693 103.253 137.32 90.1733C135.347 70.5467 141.093 50.8134 137.253 31.3067C136.093 24.8267 135.64 18.2133 136.093 11.64C136.28 9.32001 136.72 6.66667 138.76 5.21334C140.667 4.38667 142.733 4.02666 144.747 3.56C144.773 2.36 144.8 1.18667 144.84 0Z" fill="#E5C35B"/>
<path d="M138.187 356.787C140.987 356.907 143.8 357.04 146.613 357.187C148.747 363.667 152.373 369.693 153.413 376.493C154.507 390.987 148.387 405.067 150.44 419.587C150.787 423.693 153.147 427.2 155.2 430.653C151.787 440 150.693 450.04 146.613 459.173C142.24 450.867 138.2 442.307 134.56 433.653C134.507 427.52 136.107 421.533 136.387 415.413C136.44 411.52 139.2 408.533 141.133 405.4C142.973 404.893 144.827 404.413 146.68 403.907C147.12 402.387 147.587 400.88 148.067 399.387C148.293 398.733 148.72 397.427 148.933 396.773C146.187 395.867 143.4 395.147 140.653 394.267C140.64 390.067 139.773 385.92 138.04 382.093C139.173 379.76 140.387 377.467 141.373 375.08C141.813 372.813 142.027 370.52 142.213 368.227C140.067 367.907 137.947 367.6 135.813 367.36C136.893 366.747 137.973 366.16 139.08 365.587C138.16 365.107 137.253 364.627 136.347 364.173C138.44 362.12 140.667 360.213 143.04 358.48C141.413 357.907 139.787 357.347 138.187 356.787ZM145.667 427.92C145.507 429.88 145.413 431.867 145.347 433.853C148.32 435.16 152.84 434.453 152.48 430.427C152.16 426.827 148.107 427.987 145.667 427.92Z" fill="#E5C35B"/>
<path d="M159.293 1.33337C163.36 2.36004 167.76 2.93339 171.293 5.38672C174.587 7.66672 174.48 12.1334 175.333 15.6534C176.747 25.8 179.413 35.8 180.4 45.9867C180.307 46.7067 180.107 48.16 180 48.8934C178.613 46.2 177.333 43.4667 176.107 40.7201C174.333 45.6534 170.373 50.28 171.573 55.84C174.133 70.9467 179.84 86.04 177.267 101.573C175.48 96.9467 174.68 92.0401 173.867 87.1867C169.4 58.4934 164.107 29.9467 159.293 1.33337Z" fill="#D7AF4C"/>
<path d="M88.5333 7.68007C91.1867 6.94674 93.84 5.86667 96.64 5.85333C99.12 6.53333 101.587 7.30668 104.053 8.05334C106.747 20.1867 106.48 32.6534 107.453 44.9734C107.667 55.6267 105.573 66.2267 106.573 76.8933C108.293 95.8133 108.333 114.893 107.04 133.853C107.053 137.733 103.76 140.187 101.387 142.787C102.333 142.693 104.227 142.52 105.16 142.427C100.213 144.333 95.08 145.76 89.92 146.987C96.9067 140.227 93.9867 129.92 95.16 121.293C96.56 110.013 93.48 98.7867 94.72 87.5067C95.7867 77.2934 94.2 67.0667 94.3467 56.8401C94.3067 50.1201 94.9067 43.4267 95.48 36.7467C96.2934 27.6934 95.36 18.6267 95.12 9.57341C92.92 8.90674 90.7333 8.25341 88.5333 7.68007Z" fill="#E7C55B"/>
<path d="M78.5867 9.80005C81.8667 8.98672 85.1333 7.96007 88.5333 7.68007C90.7333 8.25341 92.92 8.90674 95.12 9.57341C95.36 18.6267 96.2934 27.6934 95.48 36.7467C94.9067 43.4267 94.3067 50.1201 94.3467 56.8401C94.2 67.0667 95.7867 77.2934 94.72 87.5067C93.48 98.7867 96.56 110.013 95.16 121.293C93.9867 129.92 96.9067 140.227 89.92 146.987C89.36 147.333 88.2267 148.013 87.6667 148.36C84.6533 143.133 81.68 137.613 81.2667 131.48C79.6534 109.773 85.04 88.0667 82.1467 66.4C80.9067 56.6134 78.84 46.6267 81.16 36.8267C83.08 27.9201 85.1733 17.3601 78.5867 9.80005Z" fill="#DEB850"/>
<path d="M64.6666 13.9334C69.24 12.3467 73.8933 11.0267 78.5867 9.80005C85.1733 17.3601 83.08 27.9201 81.16 36.8267C78.84 46.6267 80.9067 56.6134 82.1467 66.4C85.04 88.0667 79.6534 109.773 81.2667 131.48C81.68 137.613 84.6533 143.133 87.6667 148.36C82.7467 149.627 78.1199 151.84 73.16 152.907C72.24 153.053 70.4133 153.36 69.4933 153.52C70.5066 151.907 71.5333 150.32 72.56 148.733C70.6666 137.173 66.1866 126.013 66.2933 114.187C65.8533 99.8534 69.5466 85.5201 66.8 71.2534C64.6 58.5467 65.0266 45.6134 65.0933 32.7734C64.9866 27 67.5866 21.7467 70.2799 16.8C68.3999 15.8534 66.5333 14.8934 64.6666 13.9334Z" fill="#D2A943"/>
<path d="M39.1333 23.7067C47.1866 19.3733 55.9066 16.4401 64.6666 13.9334C66.5333 14.8934 68.3999 15.8534 70.2799 16.8C67.5866 21.7467 64.9866 27 65.0933 32.7734C65.0266 45.6134 64.6 58.5467 66.8 71.2534C69.5466 85.5201 65.8533 99.8534 66.2933 114.187C66.1866 126.013 70.6666 137.173 72.56 148.733C71.5333 150.32 70.5066 151.907 69.4933 153.52C70.4133 153.36 72.24 153.053 73.16 152.907C66.6533 156.373 59.7066 158.907 53.0133 161.96C51.72 159.96 49.9466 158.16 49.2799 155.84C50.5866 150.213 53.5466 145.027 54.0933 139.2C56.16 121.427 51.08 103.893 50.44 86.2C50.5333 74.6133 52.84 63.0667 51.7333 51.4534C50.76 42.3867 50.4 33.2267 48.6 24.2667C45.44 24.0534 42.2933 23.7867 39.1333 23.7067Z" fill="#C79B38"/>
<path d="M32.6933 25.84C34.8 25.0533 36.88 24.04 39.1333 23.7067C42.2933 23.7867 45.44 24.0534 48.6 24.2667C50.4 33.2267 50.76 42.3867 51.7333 51.4534C52.84 63.0667 50.5333 74.6133 50.44 86.2C51.08 103.893 56.16 121.427 54.0933 139.2C53.5466 145.027 50.5866 150.213 49.2799 155.84C49.9466 158.16 51.72 159.96 53.0133 161.96C49.4666 163.947 45.8533 165.8 42.1466 167.44C39.72 155.787 35.32 144.627 33.04 132.96C32.88 131.373 32.7466 129.8 32.6266 128.213C33.9466 128.693 35.2666 129.173 36.6 129.653C39.9333 120.92 34.4533 112.187 35.44 103.267C36.32 98.9067 32.7066 96.28 29.84 93.76C31.6933 83.3733 32.7066 72.7733 32.0667 62.2133C31.5867 53.0933 30.84 43.6934 34 34.9333C35.4533 31.8267 34.08 28.6533 32.6933 25.84Z" fill="#C29635"/>
<path d="M8.71997 41.64C15.12 34.2934 24.3333 30.44 32.6933 25.84C34.08 28.6533 35.4533 31.8267 34 34.9333C30.84 43.6934 31.5867 53.0933 32.0667 62.2133C32.7066 72.7733 31.6933 83.3733 29.84 93.76C32.7066 96.28 36.32 98.9067 35.44 103.267C34.4533 112.187 39.9333 120.92 36.6 129.653C35.2666 129.173 33.9466 128.693 32.6266 128.213C32.7466 129.8 32.88 131.373 33.04 132.96C24.5866 108.147 17.8667 82.76 9.06665 58.0534C7.38665 52.9067 4.79997 46.3867 8.71997 41.64Z" fill="#B38225"/>
<path d="M176.107 40.7201C177.333 43.4667 178.613 46.2 180 48.8934C180.107 48.16 180.307 46.7067 180.4 45.9867C185.893 67.7067 189 89.9867 194.213 111.787C195.573 117.493 196.787 123.253 197.8 129.04C191.413 129.067 185.013 129.507 178.64 129.24C176.493 128.107 174.307 126.987 172.56 125.307C170.8 118.747 171.8 111.84 171.72 105.133C173.24 106.787 174.773 108.427 176.253 110.133C177.587 112.72 178.427 115.52 179.573 118.187C178.96 112.627 177.027 107.2 177.267 101.573C179.84 86.04 174.133 70.9467 171.573 55.84C170.373 50.28 174.333 45.6534 176.107 40.7201Z" fill="#C59C3D"/>
<path d="M158.84 48.68C164.68 69.1467 171.64 89.3334 176.253 110.133C174.773 108.427 173.24 106.787 171.72 105.133C171.8 111.84 170.8 118.747 172.56 125.307C174.307 126.987 176.493 128.107 178.64 129.24C173.627 129.587 168.653 130.173 163.68 130.84C161.2 128.707 157.8 126.907 157.24 123.373C155.4 115.973 156.667 108.36 156.747 100.867C156.92 92.3067 153.413 84.0533 154.253 75.4667C155.053 67.24 155.147 58.9867 154.973 50.7333C156.4 51.2533 157.827 51.7733 159.28 52.3067C159.173 51.4 158.947 49.5867 158.84 48.68Z" fill="#D8B44E"/>
<path d="M144.8 143.333C155.68 141.693 166.6 139.747 177.64 139.907C172.413 141.493 167.133 142.827 161.827 144.04C160.013 147.773 156.56 150.267 154.333 153.68C154.027 155.693 154.267 157.733 154.373 159.76C136.533 163.133 118.933 167.853 101.747 173.707C94.28 176.107 87.4267 180.027 80.0133 182.493C79.52 182.613 78.5467 182.853 78.0533 182.973C80.2133 176.573 82.0934 170.067 83.2267 163.4C80.4134 164.253 77.6267 165.12 74.8267 165.987C74.88 165.24 75 163.72 75.0533 162.96C97.6 154.187 120.88 147.187 144.8 143.333Z" fill="#EFCE62"/>
<path d="M177.64 139.907C184.213 138.6 191.027 138.893 197.68 139.4C193.613 140.707 189.453 141.72 185.213 142.253C186.987 145.787 187.333 149.747 187.32 153.64C192.053 154.533 196.76 155.52 201.467 156.6C185.707 155.92 169.96 157.56 154.373 159.76C154.267 157.733 154.027 155.693 154.333 153.68C156.56 150.267 160.013 147.773 161.827 144.04C167.133 142.827 172.413 141.493 177.64 139.907Z" fill="#DCB650"/>
<path d="M197.68 139.4C201.813 138.533 206.173 138.827 210.28 139.747C211.267 140.013 212.253 140.293 213.24 140.587C212.013 146.44 211.893 152.707 208.4 157.827C206.067 157.467 203.747 157.107 201.467 156.6C196.76 155.52 192.053 154.533 187.32 153.64C187.333 149.747 186.987 145.787 185.213 142.253C189.453 141.72 193.613 140.707 197.68 139.4Z" fill="#C2963A"/>
<path d="M210.28 139.747C220.587 139.8 230.827 141.52 240.827 143.907C247.653 145.853 255.48 147.64 259.52 154.12C256.867 156.907 253.787 159.307 250.133 160.6C240.48 164.44 230.4 167.093 220.24 169.2C218.987 166.32 218.213 163 215.747 160.88C213.587 159.267 210.907 158.667 208.4 157.827C211.893 152.707 212.013 146.44 213.24 140.587C212.253 140.293 211.267 140.013 210.28 139.747Z" fill="#C29635"/>
<path d="M48.2667 175.227C57.0133 170.773 65.8 166.32 75.0533 162.96C75 163.72 74.88 165.24 74.8267 165.987C77.6267 165.12 80.4134 164.253 83.2267 163.4C82.0934 170.067 80.2133 176.573 78.0533 182.973C78.5467 182.853 79.52 182.613 80.0133 182.493C71.52 188.053 61.8266 191.547 53.6133 197.6C52.2 190.053 53.1467 181.707 48.2667 175.227Z" fill="#D7AE44"/>
<path d="M201.147 166.653C203.32 166.653 205.507 166.667 207.707 166.653C210.76 177.853 213.88 189.227 213.32 200.96C212.827 205.64 215.907 209.373 218.2 213.107C221.88 219 224.853 225.293 227.72 231.613C228.68 234.267 230.52 237.48 228.613 240.16C223.987 243.147 218.427 244.12 213.173 245.453C214.36 252.947 216.867 260.427 216.053 268.093C214.333 270.773 211.893 272.907 210.28 275.653C209.373 282.093 212.48 288.493 211.267 294.947C209.427 298.707 205 300.24 201.08 300.533C194.44 301.08 187.8 300.12 181.293 298.947C184.307 297.227 187.307 295.467 190.253 293.613C189.053 292.813 187.853 292.013 186.64 291.267C192.64 292.387 198.76 293.053 204.853 292.307C206.08 285.133 203.013 277.88 204.813 270.773C206.027 268.12 207.947 265.88 209.613 263.507C208.72 256.307 205.547 248.56 208.213 241.493C212.92 239.707 217.893 238.707 222.56 236.813C218.96 226.8 212.853 217.987 208.187 208.493C205.653 203.64 206.48 198.027 206.32 192.773C206.413 183.773 202.427 175.453 201.147 166.653Z" fill="#C29635"/>
<path d="M17.1866 194.973C26.6 187.027 37.3467 180.827 48.2667 175.227C53.1467 181.707 52.2 190.053 53.6133 197.6C50.7333 199.96 47.64 202.08 45.1333 204.853C42.6666 207.547 41.76 211.213 39.8 214.24C37.2666 215.16 34.6133 215.773 31.9333 216.013C27.6533 215.68 23.4266 214.96 19.2133 214.227C20.1333 211.693 21.3866 209.213 21.6 206.493C21.2133 202.333 18.9733 198.667 17.1866 194.973Z" fill="#C29635"/>
<path d="M0 217.827C0.426667 207.453 10.08 201.147 17.1866 194.973C18.9733 198.667 21.2133 202.333 21.6 206.493C21.3866 209.213 20.1333 211.693 19.2133 214.227C23.4266 214.96 27.6533 215.68 31.9333 216.013C24.4266 217.88 16.7734 219.173 9.06669 219.76C5.90669 220.027 2.92 218.8 0 217.827Z" fill="#C29635"/>
<path d="M51.5067 211.573C51.64 208.573 55.08 208.253 57.1467 207.027C59.2 219.24 64.44 230.84 72.0533 240.587C74.6133 243.92 77.9067 246.667 80.1867 250.24C80.3867 264.427 75.64 278.133 74.84 292.213C73.5733 290.84 72.4133 289.373 71.2267 287.947C72.7867 292.84 76.4133 297.907 74.4267 303.213C72.5333 309.467 70.2667 315.587 67.9733 321.707C66.0133 321.24 64.0533 320.8 62.12 320.253C59.3466 318.64 58.0933 315.333 56.2133 312.867C60.4 303.8 63.76 294.36 68.36 285.48C71.2533 277.64 71.04 269.08 71.4667 260.853C71.32 257.507 72.24 253.573 69.8 250.827C66.9467 247.053 63.52 243.733 60.8533 239.827C55.0933 231.56 52.2133 221.533 51.5067 211.573Z" fill="#CA9F38"/>
<path d="M108.333 242.813C116.427 251.173 122.32 261.333 127.76 271.547C128.893 274.253 132.093 274.653 134.547 275.533C146.387 278.707 157.893 283 169.64 286.453C167.64 289.493 165.493 292.413 163.173 295.213C149.827 291.627 137.067 286.24 123.987 281.84C121.973 281.067 119.307 280.413 118.987 277.867C115.213 266.253 111.573 254.587 108.333 242.813Z" fill="#E8C55B"/>
<path d="M169.64 286.453C175.307 288.027 181.267 288.813 186.64 291.267C187.853 292.013 189.053 292.813 190.253 293.613C187.307 295.467 184.307 297.227 181.293 298.947C176.16 297.72 171.027 296.467 165.813 295.653C164.933 300.373 164.693 305.187 163.88 309.92C158.613 314.667 151.96 317.627 146.533 322.227C142.453 326.253 136.453 323.107 131.467 324.52C133.88 323.8 136.32 323.16 138.72 322.333C140.64 321.2 141.813 319.2 143.213 317.52C149.16 309.467 156.733 302.853 163.173 295.213C165.493 292.413 167.64 289.493 169.64 286.453Z" fill="#CFA43D"/>
<path d="M71.2267 287.947C72.4133 289.373 73.5733 290.84 74.84 292.213C80.2533 297 87.2534 299.36 93.1067 303.493C92.3734 303.507 90.92 303.507 90.1867 303.52C92.9067 305.76 95.7333 307.867 98.6 309.947C95.92 312.64 92.6133 315.067 91.2267 318.733C90.4267 322.187 91.12 325.747 91.32 329.227C91.08 340.253 91.48 351.467 95.2933 361.933C95.0533 362.613 94.5467 363.96 94.3067 364.64C87.8267 356.053 81.9734 347.04 75.52 338.453C71.16 332.307 66.08 326.68 62.12 320.253C64.0533 320.8 66.0133 321.24 67.9733 321.707C70.2667 315.587 72.5333 309.467 74.4267 303.213C76.4133 297.907 72.7867 292.84 71.2267 287.947Z" fill="#D9B145"/>
<path d="M90.1867 303.52C90.92 303.507 92.3734 303.507 93.1067 303.493C100.573 306.52 107.533 310.72 115.133 313.44C123.067 316.227 130.96 319.107 138.72 322.333C136.32 323.16 133.88 323.8 131.467 324.52C130.547 324.813 128.72 325.387 127.8 325.68C126.133 324.667 124.48 323.693 122.813 322.747C115.387 318.947 108.013 312.68 99.1866 313.68C92.88 315.8 92.4934 323.72 91.32 329.227C91.12 325.747 90.4267 322.187 91.2267 318.733C92.6133 315.067 95.92 312.64 98.6 309.947C95.7333 307.867 92.9067 305.76 90.1867 303.52Z" fill="#F2D473"/>
<path d="M20.2133 335.947C29.64 330.813 38.7467 325.013 48.6267 320.76C49.0933 321.373 50.0266 322.587 50.4933 323.2C40.8933 330.173 35.8 341.293 32.56 352.373C30.36 358.787 36.8133 363.747 36.8666 369.96C36.8 376.027 35.2267 381.96 33.6933 387.8C31.6933 395.88 25.88 402.32 23.8266 410.4C23.0533 407.253 22.5333 404.04 22.2933 400.813C21.2133 381.64 18.7733 362.6 17.7333 343.427C17.7333 340.76 16.9067 337.013 20.2133 335.947Z" fill="#C29635"/>
<path d="M101.027 321.253C108.533 323.12 115.48 326.627 122.147 330.48C124.413 331.72 126.64 333.12 129.12 333.933C131.827 332.827 133.973 330.147 137.107 330.307C140.013 330.053 142.547 331.667 145.04 332.907C144.893 336.427 144.733 339.973 144.08 343.453C142.067 346.613 137.027 347.547 133.64 346C132.107 345.333 130.6 344.64 129.107 343.96C120.027 348.307 111.64 354.267 101.853 357.013C99.08 345.32 98.4667 333.027 101.027 321.253Z" fill="#EAC960"/>
<path d="M32.56 352.373C35.8 341.293 40.8933 330.173 50.4933 323.2C54.8133 327.733 58.6 332.733 62.36 337.747C58.9333 341.013 54.8533 343.92 52.6133 348.227C51.3866 352.733 51.8667 357.493 51.4 362.12C50.96 369.48 48.4 376.547 48.2133 383.933C48.12 389.427 51.7733 394.04 52.4933 399.373C51.9466 402.053 50.6133 404.48 49.5467 406.987C40.8933 408.44 32.2266 409.707 23.5733 411.16L23.8266 410.4C25.88 402.32 31.6933 395.88 33.6933 387.8C35.2267 381.96 36.8 376.027 36.8666 369.96C36.8133 363.747 30.36 358.787 32.56 352.373Z" fill="#C29635"/>
<path d="M145.04 332.907C150.493 329.747 154.92 323.973 161.627 323.68C163.493 331.493 163.813 339.587 163.387 347.573C163.347 349.787 162.44 351.84 161.6 353.853C155.427 350.947 150.08 346.653 144.08 343.453C144.733 339.973 144.893 336.427 145.04 332.907Z" fill="#D3AB45"/>
<path d="M170.707 329.947C177.72 332.64 184.733 335.373 191.653 338.307C196.653 339.8 197.773 345.627 198.813 350.053C198.813 350.88 198.827 352.533 198.827 353.36C197.4 353.013 195.987 352.667 194.587 352.32C193.573 363.813 191.747 375.453 193.92 386.933C195.08 393.093 194.747 399.387 195.387 405.6C195.4 407.893 197.667 408.96 199.2 410.24C195.12 410.413 191.08 410.867 187.053 411.453C188.44 412.44 189.853 413.427 191.28 414.413C193.04 415.6 194.787 416.827 196.547 418.053C194.92 418.987 193.293 419.933 191.667 420.88C193.32 424.987 195.733 429.107 195.373 433.693C194.907 439.667 193.32 445.52 193.347 451.547C193.333 459.267 194 466.987 195.067 474.627C197.627 471.72 199.64 468.387 201.373 464.933C201.427 465.947 201.533 467.987 201.587 469C199.253 481.973 195.227 494.667 191.48 507.32C189.053 514.56 187.12 522.013 183.84 528.933C183.907 527.973 184.067 526.067 184.133 525.107C182.547 526.2 180.96 527.307 179.4 528.427C179.36 518.187 183.2 508.587 184.44 498.547C185.547 490.293 182.707 482.307 181.04 474.347C179.493 467.373 182.4 460.4 181.64 453.4C181.12 448.413 179.84 443.48 180.107 438.44C180.387 432.027 181.853 425.72 181.947 419.293C182.213 410.133 180.307 401.12 179.387 392.053C178.213 379.027 181.987 366.267 182.2 353.293C178.547 352.84 174.893 352.467 171.24 352.133C170.987 344.747 170.8 337.347 170.707 329.947Z" fill="#C29635"/>
<path d="M52.6133 348.227C54.8533 343.92 58.9333 341.013 62.36 337.747C64.2533 340.227 66.0933 342.747 67.8933 345.32C60.5466 351.92 59.1866 362.173 58.4266 371.48C57.96 377.653 59.8933 383.64 60.4133 389.747C60.8933 395.387 58.5333 400.693 56.5333 405.827C54.2 406.213 51.8667 406.587 49.5467 406.987C50.6133 404.48 51.9466 402.053 52.4933 399.373C51.7733 394.04 48.12 389.427 48.2133 383.933C48.4 376.547 50.96 369.48 51.4 362.12C51.8667 357.493 51.3866 352.733 52.6133 348.227Z" fill="#C69B36"/>
<path d="M58.4266 371.48C59.1866 362.173 60.5466 351.92 67.8933 345.32C71.7066 350.187 75.6 355 79.0933 360.12C76.6933 362.307 73.0267 364.053 72.72 367.693C71.2933 379.987 74.1334 393.56 67.44 404.707C63.8 405.093 60.16 405.427 56.5333 405.827C58.5333 400.693 60.8933 395.387 60.4133 389.747C59.8933 383.64 57.96 377.653 58.4266 371.48Z" fill="#CFA63F"/>
<path d="M198.813 350.053C206.613 369.44 210.507 390.24 212.88 410.947C205.48 410.947 198.093 411 190.707 411.307C190.853 412.08 191.133 413.64 191.28 414.413C189.853 413.427 188.44 412.44 187.053 411.453C191.08 410.867 195.12 410.413 199.2 410.24C197.667 408.96 195.4 407.893 195.387 405.6C194.747 399.387 195.08 393.093 193.92 386.933C191.747 375.453 193.573 363.813 194.587 352.32C195.987 352.667 197.4 353.013 198.827 353.36C198.827 352.533 198.813 350.88 198.813 350.053Z" fill="#C29635"/>
<path d="M171.24 352.133C174.893 352.467 178.547 352.84 182.2 353.293C181.987 366.267 178.213 379.027 179.387 392.053C180.307 401.12 182.213 410.133 181.947 419.293C181.853 425.72 180.387 432.027 180.107 438.44C179.84 443.48 181.12 448.413 181.64 453.4C182.4 460.4 179.493 467.373 181.04 474.347C182.707 482.307 185.547 490.293 184.44 498.547C183.2 508.587 179.36 518.187 179.4 528.427C180.96 527.307 182.547 526.2 184.133 525.107C184.067 526.067 183.907 527.973 183.84 528.933C181.107 539.64 176.76 549.893 172.28 559.973C171.213 558.253 169.173 556.653 169.693 554.413C170.667 547.467 173.267 540.627 172.24 533.52C171.093 524.72 169.2 515.92 169.973 507C170.12 502 171.187 496.853 169.893 491.933C168.773 489.147 166.76 486.867 165 484.493C168.84 459.453 171.12 434.187 171.547 408.853C172.747 389.947 171.413 371.04 171.24 352.133Z" fill="#CAA140"/>
<path d="M103.64 365.053C111.96 363.16 119.133 358.24 126.293 353.813C132.48 353.12 138.92 354.88 145.2 353.453C146.733 354.747 148.267 356.053 149.8 357.387C149 357.347 147.413 357.24 146.613 357.187C143.8 357.04 140.987 356.907 138.187 356.787C139.787 357.347 141.413 357.907 143.04 358.48C140.667 360.213 138.44 362.12 136.347 364.173C137.253 364.627 138.16 365.107 139.08 365.587C137.973 366.16 136.893 366.747 135.813 367.36C135.28 369.253 134.347 371.293 135.067 373.293C136.573 375.2 139.253 374.64 141.373 375.08C140.387 377.467 139.173 379.76 138.04 382.093C139.773 385.92 140.64 390.067 140.653 394.267C143.4 395.147 146.187 395.867 148.933 396.773C148.72 397.427 148.293 398.733 148.067 399.387C145.413 398.173 142.587 397.547 139.68 397.733C140.067 400.293 140.533 402.853 141.133 405.4C139.2 408.533 136.44 411.52 136.387 415.413C136.107 421.533 134.507 427.52 134.56 433.653C122.4 409.933 109.093 386.813 94.3067 364.64C94.5467 363.96 95.0533 362.613 95.2933 361.933C97.8133 363.467 100.4 366.16 103.64 365.053Z" fill="#F4D468"/>
<path d="M149.8 357.387C154.453 358.533 158.68 361.04 163.32 362.347C164.107 402.84 164.2 443.733 156.347 483.64C152.693 475.68 149.027 467.573 146.613 459.173C150.693 450.04 151.787 440 155.2 430.653C153.147 427.2 150.787 423.693 150.44 419.587C148.387 405.067 154.507 390.987 153.413 376.493C152.373 369.693 148.747 363.667 146.613 357.187C147.413 357.24 149 357.347 149.8 357.387Z" fill="#DBB653"/>
<path d="M72.72 367.693C73.0267 364.053 76.6933 362.307 79.0933 360.12C84.8533 368.427 90.6933 376.693 95.9867 385.307C92.1867 388.987 87.6533 392.32 85.3867 397.24C84.7867 402.52 87.2 407.587 87.7066 412.813C89.28 422.733 84.32 432.227 85.2933 442.133C86.3066 452.52 86.5333 462.987 88.4 473.28C87.12 473.827 85.8267 474.4 84.56 474.973C78.1333 467.64 72.1733 459.88 65.24 453L65.4933 452.347C68.5333 444.227 72.08 435.827 71.2533 426.973C70.7733 421.987 70.2667 416.907 68.48 412.2C67.5067 408.947 63.5066 409.573 60.8666 409.053C63.0666 407.613 65.36 406.307 67.44 404.707C74.1334 393.56 71.2933 379.987 72.72 367.693Z" fill="#D9B44A"/>
<path d="M85.3867 397.24C87.6533 392.32 92.1867 388.987 95.9867 385.307C99.8133 391.493 104.12 397.453 107.307 404C101.267 415.16 101.24 428.48 103.027 440.733C103.44 450.12 101.72 459.44 101.427 468.8C100.733 476.173 102.307 484.613 96.8933 490.627C92.6267 485.533 88.6933 480.173 84.56 474.973C85.8267 474.4 87.12 473.827 88.4 473.28C86.5333 462.987 86.3066 452.52 85.2933 442.133C84.32 432.227 89.28 422.733 87.7066 412.813C87.2 407.587 84.7867 402.52 85.3867 397.24Z" fill="#E3C257"/>
<path d="M103.027 440.733C101.24 428.48 101.267 415.16 107.307 404C123.533 429.6 135.88 457.48 147.133 485.56C144.307 489.28 141.453 493.227 140.667 497.947C139.12 506.347 140.227 514.947 139.627 523.427C139.08 531.56 140.213 539.653 141.893 547.587C140.507 545.413 139.12 543.24 137.76 541.067C137 542.587 136.253 544.12 135.52 545.667C123.213 526.92 110.293 508.6 96.8933 490.627C102.307 484.613 100.733 476.173 101.427 468.8C101.72 459.44 103.44 450.12 103.027 440.733Z" fill="#F2D366"/>
<path d="M51.4267 413.693C54.5333 412.08 57.4266 409.907 60.8666 409.053C63.5066 409.573 67.5067 408.947 68.48 412.2C70.2667 416.907 70.7733 421.987 71.2533 426.973C72.08 435.827 68.5333 444.227 65.4933 452.347C54.8 443.2 45.68 432.213 33.88 424.333C39.0933 419.813 45.5333 417.147 51.4267 413.693Z" fill="#C89F3C"/>
<path d="M196.547 418.053C201.08 421.027 205.507 424.187 209.88 427.4C208.093 441.413 205.387 455.387 201.587 469C201.533 467.987 201.427 465.947 201.373 464.933C199.64 468.387 197.627 471.72 195.067 474.627C194 466.987 193.333 459.267 193.347 451.547C193.32 445.52 194.907 439.667 195.373 433.693C195.733 429.107 193.32 424.987 191.667 420.88C193.293 419.933 194.92 418.987 196.547 418.053Z" fill="#C29635"/>
<path d="M159.533 516.813C160.2 505.88 163.333 495.293 165 484.493C166.76 486.867 168.773 489.147 169.893 491.933C171.187 496.853 170.12 502 169.973 507C169.2 515.92 171.093 524.72 172.24 533.52C173.267 540.627 170.667 547.467 169.693 554.413C169.173 556.653 171.213 558.253 172.28 559.973C170.2 564.947 168.827 570.4 165.653 574.813C163.84 576.187 161.947 577.467 160.093 578.8C157.4 571.947 152.6 566.293 149.013 559.933C150.093 559.587 151.187 559.267 152.293 558.947C153.293 560.027 154.293 561.12 155.307 562.213C154.587 557.413 153.573 552.52 154.507 547.68C156.427 537.44 158.64 527.2 159.533 516.813Z" fill="#D3AF4B"/>
<path d="M147.133 485.56C150.507 493.92 153.493 502.44 156.373 510.987C157.04 513.107 158.187 515.04 159.533 516.813C158.64 527.2 156.427 537.44 154.507 547.68C153.573 552.52 154.587 557.413 155.307 562.213C154.293 561.12 153.293 560.027 152.293 558.947C151.187 559.267 150.093 559.587 149.013 559.933C152.6 566.293 157.4 571.947 160.093 578.8C161.947 577.467 163.84 576.187 165.653 574.813C164.373 578.413 162.76 581.88 161.013 585.267C156.093 579.187 152.653 572.133 148.387 565.627C144.253 558.867 139.707 552.373 135.52 545.667C136.253 544.12 137 542.587 137.76 541.067C139.12 543.24 140.507 545.413 141.893 547.587C140.213 539.653 139.08 531.56 139.627 523.427C140.227 514.947 139.12 506.347 140.667 497.947C141.453 493.227 144.307 489.28 147.133 485.56Z" fill="#E1C059"/>
</svg>
