<svg width="616" height="217" viewBox="0 0 616 217" fill="none" xmlns="http://www.w3.org/2000/svg">
<path d="M265.507 166.686C271.243 165.806 277.063 166.06 282.841 165.901C295.563 165.583 308.285 165.615 321.018 165.477C335.15 164.82 349.293 165.753 363.425 165.679C368.153 165.753 372.881 165.615 377.599 166.05C372.521 167.746 366.319 167.704 362.386 171.775C358.983 176.418 357.244 182.111 353.311 186.437C357.583 186.882 361.792 187.762 365.948 188.865C348.519 189.564 331.058 189.013 313.618 189.437C295.415 189.511 277.18 190.847 258.998 190.349L258.139 190.19C264.988 188.96 272.367 189.639 278.812 186.776C280.371 180.765 281.898 174.733 284.018 168.87C277.795 168.87 271.423 168.955 265.507 166.686Z" fill="#F6D86B"/>
<path d="M241.017 167.396C246.774 166.537 252.616 166.951 258.415 166.58C260.768 166.548 263.186 166.039 265.507 166.686C271.423 168.955 277.795 168.87 284.018 168.87C281.898 174.733 280.371 180.765 278.812 186.776C272.367 189.639 264.988 188.96 258.139 190.19C257.715 190.116 256.878 189.978 256.453 189.904C258.987 187.37 261.807 184.571 261.818 180.712C262.73 176.1 260.281 170.725 255.563 169.411C250.718 168.615 245.597 169.58 241.017 167.396Z" fill="#F0D266"/>
<path d="M377.599 166.05C383.642 165.647 389.77 165.859 395.792 166.591C392.866 167.651 389.621 168.191 387.045 169.972C386.08 174.277 386.144 178.857 384.003 182.854C388.317 187.052 394.838 186.458 399.948 189.162C393.799 189.798 387.618 189.13 381.458 189.215C376.285 189.045 371.09 189.448 365.948 188.865C361.792 187.762 357.583 186.882 353.311 186.437C357.244 182.111 358.983 176.418 362.386 171.775C366.319 167.704 372.521 167.746 377.599 166.05Z" fill="#E8C85E"/>
<path d="M395.792 166.591C398.728 165.87 401.792 166.326 404.782 166.453C411.196 167.004 417.674 166.495 424.056 167.396C418.925 169.071 413.486 169.538 408.164 168.573C410.168 169.835 412.935 170.757 413.56 173.344C414.832 177.574 415.755 181.899 417.281 186.066C419.815 185.907 422.37 185.769 424.925 185.684C423.812 186.395 422.72 187.116 421.607 187.805C414.875 191.25 407.125 189.914 399.948 189.162C394.838 186.458 388.317 187.052 384.003 182.854C386.144 178.857 386.08 174.277 387.045 169.972C389.621 168.191 392.866 167.651 395.792 166.591Z" fill="#DFBD58"/>
<path d="M438.665 167.492C443.722 166.569 448.684 168.615 453.783 168.287C448.259 173.291 442.238 178.062 438.315 184.507C440.075 184.719 441.845 184.942 443.616 185.154C442.651 186.299 441.665 187.423 440.711 188.568C434.339 188.165 427.968 187.953 421.607 187.805C422.72 187.116 423.812 186.395 424.925 185.684C422.37 185.769 419.815 185.907 417.281 186.066C415.755 181.899 414.832 177.574 413.56 173.344C412.935 170.757 410.168 169.835 408.164 168.573C413.486 169.538 418.925 169.071 424.056 167.396C428.911 166.697 433.799 168.054 438.665 167.492Z" fill="#D3AE4A"/>
<path d="M188.094 169.824C202.841 168.032 217.778 168.297 232.6 167.29C231.9 173.588 234.381 179.429 236.098 185.334C234.328 188.218 231.19 189.882 228.539 191.876C217.323 193.233 205.852 193.561 194.508 193.773C198.07 190.953 203.095 192.077 206.806 189.713C207.23 186.596 205.841 183.659 204.77 180.829C206.901 178.623 209.096 176.482 211.301 174.351C204.611 169.124 195.674 172.432 188.094 169.824Z" fill="#DEBC56"/>
<path d="M232.6 167.29C235.388 167.333 238.261 166.718 241.017 167.396C245.597 169.58 250.718 168.615 255.563 169.411C260.281 170.725 262.73 176.1 261.818 180.712C261.807 184.571 258.987 187.37 256.453 189.904C256.878 189.978 257.715 190.116 258.139 190.19L258.998 190.349C253.602 191.706 247.993 191.144 242.491 191.483C237.837 191.483 233.193 192.204 228.539 191.876C231.19 189.882 234.328 188.218 236.098 185.334C234.381 179.429 231.9 173.588 232.6 167.29Z" fill="#E9C85E"/>
<path d="M453.783 168.287C465.498 168.446 477.276 169.209 488.917 170.736C485.949 171.329 483.022 172.061 480.107 172.793C478.93 176.196 477.117 179.376 474.128 181.507C480.213 184.348 486.786 180.797 493.094 182.08C498.427 183.013 503.664 184.454 508.975 185.546C507.364 185.705 505.753 185.886 504.152 186.087C493.688 185.886 483.213 185.228 472.802 184.2C472.94 184.571 473.205 185.313 473.343 185.684C484.316 186.405 495.246 187.773 506.166 189.087C507.883 189.299 509.559 189.766 511.234 190.264C510.184 190.55 509.156 190.847 508.127 191.165C498.459 191.992 488.663 190.943 478.962 190.434C466.198 190.052 453.454 189.236 440.711 188.568C441.665 187.423 442.651 186.299 443.616 185.154C441.845 184.942 440.075 184.719 438.315 184.507C442.238 178.062 448.259 173.291 453.783 168.287Z" fill="#C69E41"/>
<path d="M173.453 170.45C178.329 170.269 183.206 169.368 188.094 169.824C195.674 172.432 204.611 169.124 211.301 174.351C209.096 176.482 206.901 178.623 204.77 180.829C205.841 183.659 207.23 186.596 206.806 189.713C203.095 192.077 198.07 190.953 194.508 193.773L193.797 194.208C185.433 194.494 177.131 196.053 168.746 195.671C174.619 192.968 181.171 192.851 187.405 191.515C185.38 189.967 181.966 189.31 181.287 186.585C181.881 185.006 182.761 183.564 183.567 182.101C180.725 177.807 178.096 173.047 173.453 170.45Z" fill="#D8B44C"/>
<path d="M156.755 171.552C162.332 171.319 167.876 170.492 173.453 170.45C178.096 173.047 180.725 177.807 183.567 182.101C182.761 183.564 181.881 185.006 181.287 186.585C181.966 189.31 185.38 189.967 187.405 191.515C181.171 192.851 174.619 192.968 168.746 195.671C164.356 197.049 159.66 196.752 155.154 197.463C150.044 197.813 144.987 198.958 139.867 198.799C139.008 198.565 137.312 198.109 136.453 197.876C140.269 196.498 144.351 195.83 148.009 194.06C150.595 190.974 152.43 187.243 155.546 184.582C152.822 181.868 150.352 178.835 148.899 175.231C145.252 174.923 141.637 174.383 138.075 173.545C144.181 172.019 150.532 172.209 156.755 171.552Z" fill="#D1AA45"/>
<path d="M488.917 170.736C503.102 171.16 517.33 172.379 531.387 174.51C524.507 175.973 518.199 179.334 513.28 184.359C515.358 184.603 517.446 184.825 519.535 185.112C516.036 185.568 512.495 185.695 508.975 185.546C503.664 184.454 498.427 183.013 493.094 182.08C486.786 180.797 480.213 184.348 474.128 181.507C477.117 179.376 478.93 176.196 480.107 172.793C483.022 172.061 485.949 171.329 488.917 170.736Z" fill="#BF9236"/>
<path d="M105.761 176.715C116.5 175.538 127.272 173.28 138.075 173.545C141.637 174.383 145.252 174.923 148.899 175.231C150.352 178.835 152.822 181.868 155.546 184.582C152.43 187.243 150.595 190.974 148.009 194.06C144.351 195.83 140.269 196.498 136.453 197.876C137.312 198.109 139.008 198.565 139.867 198.799C132.869 200.209 125.724 200.537 118.652 201.364C117.974 200.739 117.285 200.124 116.606 199.53C118.186 199.254 119.776 199 121.367 198.745C117.709 190.614 114.295 180.924 105.761 176.715Z" fill="#C9A03D"/>
<path d="M531.387 174.51C536.572 174.075 541.735 175.22 546.855 175.92C554.722 177.457 562.705 178.199 570.603 179.546C574.897 180.288 579.445 180.256 583.399 182.323C576.413 182.716 569.469 180.797 562.493 181.772C575.172 184.826 588.541 184.582 601.062 188.515C605.674 189.978 610.731 189.681 615.13 191.876C606.469 192.172 597.934 190.073 589.273 190.052C581.746 190.042 574.197 188.123 566.712 189.533C562.662 190.285 558.581 189.374 554.542 189.066C539.01 187.243 523.341 187.476 507.756 186.363C506.548 186.246 505.35 186.151 504.152 186.087C505.753 185.886 507.364 185.705 508.975 185.546C512.495 185.695 516.036 185.568 519.535 185.112C517.446 184.825 515.358 184.603 513.28 184.359C518.199 179.334 524.507 175.973 531.387 174.51Z" fill="#B7852E"/>
<path d="M97.9262 177.531C100.534 177.298 103.132 176.821 105.761 176.715C114.295 180.924 117.709 190.614 121.367 198.745C119.776 199 118.186 199.254 116.606 199.53C117.285 200.124 117.974 200.739 118.652 201.364C108.507 202.753 98.3185 203.93 88.1832 205.382C87.791 203.633 86.8898 201.799 87.4941 199.996C89.7417 198.374 92.6571 198.247 95.2651 197.547C95.1061 193.879 94.5867 190.243 93.7915 186.66C95.5832 184.126 97.0144 181.348 97.7035 178.316L97.9262 177.531Z" fill="#BF9536"/>
<path d="M75.6202 180.723C82.9778 179.906 90.2717 178.146 97.7035 178.316C97.0144 181.348 95.5832 184.126 93.7915 186.66C94.5867 190.243 95.1061 193.879 95.2651 197.547C92.6571 198.247 89.7417 198.374 87.4941 199.996C86.8898 201.799 87.791 203.633 88.1832 205.382C78.5675 206.665 68.9623 208.117 59.336 209.262C57.3535 208.987 55.3921 208.595 53.4414 208.213C56.3993 206.177 60.0251 206.039 63.4918 206.05C60.8944 200.028 55.7738 195.597 53.0916 189.617C52.254 187.359 49.8793 186.607 47.8649 185.758C49.2432 185.334 50.6108 184.9 51.989 184.497C59.7176 182.472 67.7643 182.08 75.6202 180.723Z" fill="#BB8D30"/>
<path d="M472.802 184.2C483.213 185.228 493.688 185.886 504.152 186.087C505.35 186.151 506.548 186.246 507.756 186.363C507.364 187.041 506.558 188.409 506.166 189.087C495.246 187.773 484.316 186.405 473.343 185.684C473.205 185.313 472.94 184.571 472.802 184.2Z" fill="#C29635"/>
<path d="M23.3538 188.928C32.8741 187.285 42.3308 185.101 51.989 184.497C50.6108 184.9 49.2432 185.334 47.8649 185.758C49.8793 186.607 52.254 187.359 53.0916 189.617C55.7738 195.597 60.8944 200.028 63.4918 206.05C60.0251 206.039 56.3993 206.177 53.4414 208.213C55.3921 208.595 57.3535 208.987 59.336 209.262C49.487 211.118 39.585 212.666 29.736 214.489C22.018 215.729 14.2363 217.638 6.35924 216.79C2.93489 216.323 0.687332 212.952 0.263264 209.729C-0.394042 204.979 -0.044178 199.329 3.93146 196.063C9.34893 191.483 16.6429 190.36 23.3538 188.928Z" fill="#B48429"/>
<path d="M85.329 139.073C80.6046 139.073 75.6588 138.852 70.4915 138.409C65.3243 137.819 60.4523 137.08 55.8755 136.195C51.2988 135.161 47.6079 134.128 44.8028 133.094C41.9977 131.913 40.5952 130.806 40.5952 129.772C40.5952 127.853 40.8904 125.048 41.481 121.357C42.2192 117.666 42.8835 112.647 43.4741 106.298C44.0646 99.8022 44.3599 91.6084 44.3599 81.7167V70.644C44.3599 60.4571 44.6552 50.7131 45.2457 41.412C45.9839 31.9633 47.0174 24.9505 48.3461 20.3738H40.1523L29.0795 5.53636L30.8512 1.99308H58.9759L71.5988 19.0451C69.9748 23.6218 68.7199 30.2654 67.8341 38.976C67.0959 47.5389 66.7268 57.7258 66.7268 69.5367V83.7098C66.7268 92.1251 66.5053 99.2854 66.0624 105.191C65.7672 110.949 65.3981 115.673 64.9552 119.364C67.6126 119.659 70.713 119.807 74.2563 119.807C78.2424 119.807 82.1548 119.733 85.9933 119.585C89.9795 119.29 94.261 118.847 98.8377 118.257L108.36 135.309L105.703 139.073H85.329Z" fill="url(#paint0_linear_1_195)"/>
<path d="M167.227 139.073C149.659 139.073 136.74 137.892 128.473 135.53C120.205 133.02 116.071 131.101 116.071 129.772C116.071 126.82 116.588 121.283 117.622 113.163C118.803 105.043 119.393 94.8564 119.393 82.6025V54.4778C119.541 45.9149 119.984 38.9022 120.722 33.4396C121.46 27.8294 122.272 23.4742 123.158 20.3738H115.628L104.556 5.53636L106.327 1.99308H178.079L190.48 17.9378L179.629 27.4604H174.978C173.354 24.8029 171.435 22.9574 169.221 21.924C167.154 20.8905 164.127 20.3738 160.141 20.3738H146.189C145.156 24.36 144.122 29.3796 143.089 35.4327C142.203 41.4858 141.76 48.6462 141.76 56.9138V60.0142H171.435L181.401 75.9589L178.522 79.2807H141.76V88.1389C141.76 94.4873 141.612 99.9498 141.317 104.527C141.17 108.956 140.8 113.459 140.21 118.035C142.572 118.478 145.451 118.847 148.847 119.143C152.242 119.29 156.007 119.364 160.141 119.364C164.127 119.364 167.966 119.216 171.657 118.921C175.495 118.626 179.038 118.257 182.286 117.814L192.473 135.309L189.816 139.073H167.227Z" fill="url(#paint1_linear_1_195)"/>
<path d="M235.543 143.503C225.799 140.255 218.417 137.228 213.397 134.423C208.378 131.618 205.868 129.329 205.868 127.558C205.868 125.934 206.015 124.236 206.311 122.464C206.606 120.693 206.901 118.109 207.197 114.713C207.492 111.318 207.639 106.446 207.639 100.097V61.1215C207.639 50.6393 207.861 42.1502 208.304 35.6542C208.894 29.1582 209.633 24.0647 210.518 20.3738H202.767L191.916 5.53636L193.466 1.99308H222.698C223.584 1.99308 225.282 3.83854 227.792 7.52945C230.302 11.2204 233.254 17.1996 236.65 25.4673L267.654 100.319C266.915 91.756 266.473 83.4145 266.325 75.2945V53.1491C266.325 45.0291 266.546 38.4593 266.989 33.4396C267.58 28.2724 268.318 23.9171 269.204 20.3738H260.789L251.266 5.53636L252.816 1.99308H281.827L292.899 18.6022C291.866 21.4073 290.906 25.172 290.021 29.8964C289.135 34.4731 288.692 41.1167 288.692 49.8273V91.9036C288.692 102.681 288.397 111.465 287.806 118.257C287.363 125.048 286.92 129.477 286.477 131.544C287.806 132.43 289.209 133.316 290.685 134.201C292.161 134.94 293.638 135.678 295.114 136.416L291.792 143.281C283.525 139.885 276.586 136.342 270.975 132.651C265.513 128.96 262.413 126.229 261.674 124.457L229.563 46.284C229.859 50.8607 230.006 55.5113 230.006 60.2356C230.006 64.96 230.006 69.6105 230.006 74.1873V104.969C230.006 111.318 229.785 116.411 229.342 120.25C229.047 123.941 228.899 126.82 228.899 128.887C228.899 131.396 232.073 134.128 238.422 137.08L235.543 143.503Z" fill="url(#paint2_linear_1_195)"/>
<path d="M360.474 141.731C356.635 141.731 351.985 140.771 346.522 138.852C341.208 136.785 335.893 134.201 330.578 131.101C325.411 128.001 321.055 124.827 317.512 121.579C314.116 118.183 312.419 115.083 312.419 112.277C312.419 108.439 312.64 103.567 313.083 97.6615C313.526 91.6084 313.747 85.26 313.747 78.6164V32.5538C313.747 20.5953 316.552 12.18 322.163 7.308C327.92 2.436 336.852 0 348.958 0C353.092 0 357.669 1.25491 362.689 3.76472C367.708 6.27454 372.506 9.44872 377.083 13.2873C381.807 16.9782 385.646 20.8905 388.599 25.0244C391.699 29.1582 393.249 32.8491 393.249 36.0971C393.249 38.9022 393.175 43.1098 393.028 48.72C393.028 54.1825 392.954 60.3833 392.806 67.3222C392.659 74.1135 392.511 80.9047 392.364 87.696C392.364 94.4873 392.364 100.54 392.364 105.855C392.364 117.519 389.632 126.451 384.17 132.651C378.855 138.704 370.956 141.731 360.474 141.731ZM343.422 121.579C353.609 121.579 360.548 119.143 364.239 114.271C367.93 109.399 369.775 101.352 369.775 90.132C369.775 88.0651 369.775 84.9647 369.775 80.8309C369.923 76.6971 370.07 72.1204 370.218 67.1007C370.513 61.9334 370.735 56.84 370.882 51.8204C371.03 46.6531 371.104 42.0764 371.104 38.0902C371.251 34.104 371.325 31.1513 371.325 29.232C371.325 26.1316 370.587 23.9171 369.111 22.5884C367.634 21.2596 365.125 20.5953 361.581 20.5953C354.642 20.5953 349.328 21.3335 345.637 22.8098C341.946 24.2862 339.436 26.5007 338.107 29.4534C336.926 32.4062 336.336 36.2447 336.336 40.9691V88.1389C336.336 95.2255 336.114 101.057 335.671 105.634C335.376 110.211 335.228 113.385 335.228 115.156C335.228 119.438 337.96 121.579 343.422 121.579Z" fill="url(#paint3_linear_1_195)"/>
<path d="M447.744 143.503C438 140.255 430.619 137.228 425.599 134.423C420.579 131.618 418.07 129.329 418.07 127.558C418.07 125.934 418.217 124.236 418.512 122.464C418.808 120.693 419.103 118.109 419.398 114.713C419.694 111.318 419.841 106.446 419.841 100.097V57.3567C419.841 50.2702 420.136 43.3313 420.727 36.54C421.318 29.7487 422.425 24.36 424.049 20.3738H416.076L405.225 5.53636L406.775 1.99308H435.122L447.523 19.2665C445.899 23.8433 444.57 29.4534 443.537 36.0971C442.651 42.7407 442.208 50.1964 442.208 58.464V104.969C442.208 111.318 441.987 116.411 441.544 120.25C441.248 123.941 441.101 126.82 441.101 128.887C441.101 131.396 444.275 134.128 450.623 137.08L447.744 143.503Z" fill="url(#paint4_linear_1_195)"/>
<path d="M500.888 143.945C491.144 140.697 483.763 137.671 478.743 134.866C473.723 132.061 471.213 129.772 471.213 128.001C471.213 126.377 471.361 124.679 471.656 122.907C471.952 121.136 472.247 118.552 472.542 115.156C472.837 111.761 472.985 106.889 472.985 100.54V58.464C472.985 48.72 473.354 40.8214 474.092 34.7684C474.978 28.5676 475.864 23.7694 476.75 20.3738H469.22L458.148 5.53636L459.919 1.99308H480.736C485.313 1.84544 489.889 1.69781 494.466 1.55017C499.191 1.25491 502.881 1.10727 505.539 1.10727C509.525 1.10727 513.88 2.28836 518.605 4.65054C523.477 7.01272 528.053 10.0393 532.335 13.7302C536.764 17.4211 540.381 21.2596 543.186 25.2458C545.991 29.0844 547.394 32.48 547.394 35.4327V55.1422C547.394 67.8389 541.857 76.9185 530.785 82.3811C542.448 88.7295 548.28 95.3731 548.28 102.312C548.28 105.56 548.206 109.546 548.058 114.271C547.911 118.995 547.837 123.055 547.837 126.451C547.837 128.813 548.649 130.806 550.273 132.43C551.897 133.906 554.628 135.678 558.467 137.745L555.145 144.388C545.253 140.107 537.65 136.416 532.335 133.316C527.02 130.215 524.363 126.82 524.363 123.129C524.363 119.438 524.51 115.525 524.805 111.392C525.101 107.11 525.248 103.567 525.248 100.762C525.248 95.7422 523.181 91.9036 519.048 89.2462C514.914 86.4411 508.344 85.0385 499.338 85.0385H495.352V105.412C495.352 111.761 495.131 116.854 494.688 120.693C494.392 124.384 494.245 127.263 494.245 129.329C494.245 131.839 497.419 134.571 503.767 137.523L500.888 143.945ZM516.612 20.3738C513.807 20.3738 510.928 20.5214 507.975 20.8167C505.17 20.9644 502.291 21.2596 499.338 21.7025C498.305 25.6887 497.345 30.6345 496.459 36.54C495.721 42.2978 495.352 49.0891 495.352 56.9138V66.4364H509.082C514.249 66.4364 518.236 64.6647 521.041 61.1215C523.993 57.4305 525.47 52.1894 525.47 45.3982V33.2182C525.47 28.4938 524.805 25.172 523.477 23.2527C522.148 21.3334 519.86 20.3738 516.612 20.3738Z" fill="url(#paint5_linear_1_195)"/>
<defs>
<linearGradient id="paint0_linear_1_195" x1="29.0196" y1="56.5468" x2="557.548" y2="56.5468" gradientUnits="userSpaceOnUse">
<stop stop-color="#B28028"/>
<stop offset="0.485577" stop-color="#F2D266"/>
<stop offset="1" stop-color="#B28028"/>
</linearGradient>
<linearGradient id="paint1_linear_1_195" x1="29.0196" y1="56.5468" x2="557.548" y2="56.5468" gradientUnits="userSpaceOnUse">
<stop stop-color="#B28028"/>
<stop offset="0.485577" stop-color="#F2D266"/>
<stop offset="1" stop-color="#B28028"/>
</linearGradient>
<linearGradient id="paint2_linear_1_195" x1="29.0196" y1="56.5468" x2="557.548" y2="56.5468" gradientUnits="userSpaceOnUse">
<stop stop-color="#B28028"/>
<stop offset="0.485577" stop-color="#F2D266"/>
<stop offset="1" stop-color="#B28028"/>
</linearGradient>
<linearGradient id="paint3_linear_1_195" x1="29.0196" y1="56.5468" x2="557.548" y2="56.5468" gradientUnits="userSpaceOnUse">
<stop stop-color="#B28028"/>
<stop offset="0.485577" stop-color="#F2D266"/>
<stop offset="1" stop-color="#B28028"/>
</linearGradient>
<linearGradient id="paint4_linear_1_195" x1="29.0196" y1="56.5468" x2="557.548" y2="56.5468" gradientUnits="userSpaceOnUse">
<stop stop-color="#B28028"/>
<stop offset="0.485577" stop-color="#F2D266"/>
<stop offset="1" stop-color="#B28028"/>
</linearGradient>
<linearGradient id="paint5_linear_1_195" x1="29.0196" y1="56.5468" x2="557.548" y2="56.5468" gradientUnits="userSpaceOnUse">
<stop stop-color="#B28028"/>
<stop offset="0.485577" stop-color="#F2D266"/>
<stop offset="1" stop-color="#B28028"/>
</linearGradient>
</defs>
</svg>
